<?xml version="1.0" encoding="iso-8859-1"?>
<!-- Generator: Adobe Illustrator 19.0.0, SVG Export Plug-In . SVG Version: 6.00 Build 0)  -->
<svg version="1.1" id="Capa_1" xmlns="http://www.w3.org/2000/svg" xmlns:xlink="http://www.w3.org/1999/xlink" x="0px" y="0px"
	 viewBox="0 0 512.001 512.001" style="enable-background:new 0 0 512.001 512.001;" xml:space="preserve">
<g>
	<g>
		<path d="M512.001,107.277c-23.658-33.787-70.696-42.691-104.489-19.032L233.753,209.903l-63.183-44.239
			c23.525-40.618,12.461-93.179-26.71-120.603c-41.364-28.953-98.354-18.906-127.32,22.451
			c-28.953,41.357-18.913,98.36,22.451,127.326c28.385,19.873,64.137,21.364,93.128,6.983l77.388,54.173l-77.388,54.185
			c-28.991-14.376-64.743-12.885-93.128,6.983c-41.364,28.966-51.404,85.962-22.451,127.32
			c28.966,41.364,85.962,51.411,127.32,22.458c39.164-27.424,50.229-79.985,26.71-120.603l63.189-44.245l173.745,121.658
			c33.794,23.658,80.831,14.755,104.489-19.032L299.59,256.006L512.001,107.277z M91.628,167.54
			c-26.173,0-47.392-21.219-47.392-47.392c0-26.173,21.219-47.392,47.392-47.392c26.18,0,47.392,21.219,47.392,47.392
			C139.02,146.321,117.807,167.54,91.628,167.54z M91.628,439.255c-26.173,0-47.392-21.219-47.392-47.392
			s21.219-47.392,47.392-47.392c26.18,0,47.392,21.219,47.392,47.392C139.02,418.036,117.807,439.255,91.628,439.255z"/>
	</g>
</g>
<g>
	<g>
		<rect x="366.507" y="243.368" width="44.233" height="31.594"/>
	</g>
</g>
<g>
	<g>
		<rect x="442.331" y="243.368" width="44.233" height="31.594"/>
	</g>
</g>
<g>
</g>
<g>
</g>
<g>
</g>
<g>
</g>
<g>
</g>
<g>
</g>
<g>
</g>
<g>
</g>
<g>
</g>
<g>
</g>
<g>
</g>
<g>
</g>
<g>
</g>
<g>
</g>
<g>
</g>
</svg>
